<?xml version="1.0" encoding="utf-8"?><svg viewBox="0 0 800 800" xmlns="http://www.w3.org/2000/svg" xmlns:xlink="http://www.w3.org/1999/xlink"><style>:root>svg{display:none}:root>svg:target{display:block}</style><svg viewBox="0 0 1024 1024" class="aicon" id="car" xmlns="http://www.w3.org/2000/svg"><path d="M894.4 812.1H106.2c-17.1 0-30.9-14.3-30.9-32v-208H772c76 0 139.6 59.8 146.9 138.1l6.5 69.9c-.1 17.6-13.9 32-31 32zM695.3 572h-620l52.9-163.8c4.3-13.2 16.6-22.2 30.5-22.2h444.5c13.3 0 25.3 8.3 29.9 20.7L695.3 572z" fill="#F2E779"/><path d="m953.3 812.1-7.2-57.7c-4-32.1-31.3-56.3-63.5-56.3H767.2c-26.5 0-50.6 16.8-59.9 41.7l-27 72.3h273z" fill="#F9EBCD"/><path d="M920.3 812.1h-206l22.2-59.2c4.7-12.5 16.6-20.8 30-20.8h115.6c16.1 0 29.8 12 31.8 28l6.4 52z" fill="#F4CD9D"/><path d="M920.3 820.1h-206c-2.6 0-5.1-1.3-6.6-3.4-1.5-2.2-1.8-4.9-.9-7.4L729 750c5.8-15.5 20.9-26 37.5-26h115.6c20.1 0 37.2 15.1 39.7 35l6.5 52c.3 2.3-.4 4.6-1.9 6.3-1.6 1.8-3.8 2.8-6.1 2.8zm-194.5-16h185.4l-5.4-43c-1.5-12-11.7-21-23.8-21H766.5c-9.9 0-19 6.3-22.5 15.6l-18.2 48.4z" fill="#9A2D2F"/><path d="M737.3 841.1a80 80 0 1 0 160 0 80 80 0 1 0-160 0Z" fill="#DAE5FF"/><path d="m124.3 812.1 7.2-57.7c4-32.1 31.3-56.3 63.5-56.3h115.5c26.5 0 50.6 16.8 59.9 41.7l27 72.3H124.3z" fill="#F9EBCD"/><path d="M157.3 812.1h206l-22.2-59.2c-4.7-12.5-16.6-20.8-30-20.8H195.6c-16.1 0-29.8 12-31.8 28l-6.5 52z" fill="#F4CD9D"/><path d="M363.3 820.1h-206c-2.3 0-4.5-1-6-2.7-1.5-1.7-2.2-4-1.9-6.3l6.5-52c2.5-20 19.6-35 39.7-35h115.6c16.6 0 31.6 10.4 37.5 26l22.2 59.2c.9 2.5.6 5.2-.9 7.4-1.6 2.1-4.1 3.4-6.7 3.4zm-196.9-16h185.4l-18.2-48.4c-3.5-9.3-12.5-15.6-22.5-15.6H195.6c-12.1 0-22.3 9-23.8 21l-5.4 43z" fill="#9A2D2F"/><path d="M180.3 841.1a80 80 0 1 0 160 0 80 80 0 1 0-160 0Z" fill="#DAE5FF"/><path d="M796.2 641.1H146.3c-4.4 0-8-3.6-8-8s3.6-8 8-8h649.8c4.4 0 8 3.6 8 8s-3.5 8-7.9 8z" fill="#9A2D2F"/><path d="M874.8 617.1h-22.5c-8.8 0-16 7.2-16 16s7.2 16 16 16h46.9c-6.7-11.8-14.9-22.5-24.4-32z" fill="#FFF5DC"/><path d="M364.3 536.1h-210c-11 0-18.7-10.8-15.2-21.1l25.5-75.1c4.4-13 16.6-21.7 30.3-21.7h169.3c8.8 0 16 7.2 16 16v86c.1 8.7-7.1 15.9-15.9 15.9z" fill="#DAE5FF"/><path d="M364.3 544.1h-210c-7.7 0-15-3.7-19.5-10-4.6-6.4-5.7-14.3-3.2-21.7l25.5-75.1c5.5-16.2 20.8-27.2 37.9-27.2h169.3c13.2 0 24 10.8 24 24v86c0 13.2-10.8 24-24 24zM195 426.1c-10.3 0-19.5 6.5-22.8 16.3l-25.5 75.1c-.8 2.5-.4 5.1 1.1 7.2 1.5 2.1 3.9 3.3 6.5 3.3h209.9c4.4 0 8-3.6 8-8v-86c0-4.4-3.6-8-8-8l-169.2.1z" fill="#9A2D2F"/><path d="M610.3 536.1h-159c-8.9 0-16-7.2-16-16v-86c0-8.8 7.2-16 16-16h118.2c13.7 0 25.9 8.7 30.4 21.7l25.5 75.1c3.6 10.4-4.2 21.2-15.1 21.2z" fill="#DAE5FF"/><path d="M610.3 544.1h-159c-13.2 0-24-10.8-24-24v-86c0-13.2 10.8-24 24-24h118.2c17.2 0 32.4 10.9 37.9 27.2l25.5 75.1c2.5 7.4 1.3 15.3-3.2 21.7-4.4 6.2-11.7 10-19.4 10zm-159-118c-4.4 0-8 3.6-8 8v86c0 4.4 3.6 8 8 8h158.9c2.6 0 5-1.2 6.5-3.4 1.5-2.1 1.9-4.7 1.1-7.2l-25.5-75.1c-3.3-9.7-12.5-16.3-22.8-16.3H451.3z" fill="#9A2D2F"/><path d="M211.3 842.1a50 50 0 1 0 100 0 50 50 0 1 0-100 0Z" fill="#FFF"/><path d="M261.3 900.1c-32 0-58-26-58-58s26-58 58-58 58 26 58 58-26 58-58 58zm0-100c-23.2 0-42 18.8-42 42s18.8 42 42 42 42-18.8 42-42-18.8-42-42-42z" fill="#9A2D2F"/><path d="M767.3 842.1a50 50 0 1 0 100 0 50 50 0 1 0-100 0Z" fill="#FFF"/><path d="M817.3 900.1c-32 0-58-26-58-58s26-58 58-58 58 26 58 58-26 58-58 58zm0-100c-23.2 0-42 18.8-42 42s18.8 42 42 42 42-18.8 42-42-18.8-42-42-42zm-741-587.2c5 0 7.5 3 12.7 10.2 5.1 7.2 12 17 25.7 17s20.7-9.8 25.7-17c5.1-7.3 7.7-10.2 12.7-10.2s7.5 3 12.7 10.2c5.1 7.2 12 17 25.7 17 13.8 0 20.7-9.8 25.7-17 5.1-7.3 7.7-10.2 12.7-10.2s7.5 3 12.7 10.2c5.1 7.2 12 17 25.7 17 4.4 0 8-3.6 8-8s-3.6-8-8-8c-5 0-7.5-3-12.7-10.2-5.1-7.2-12-17-25.7-17s-20.7 9.8-25.7 17c-5.1 7.3-7.7 10.2-12.7 10.2s-7.5-3-12.7-10.2c-5.1-7.2-12-17-25.7-17s-20.7 9.8-25.7 17c-5.1 7.3-7.7 10.2-12.7 10.2s-7.5-3-12.7-10.2c-5.1-7.2-12-17-25.7-17-4.4 0-8 3.6-8 8s3.6 8 8 8zm0 50c5 0 7.5 3 12.7 10.2 5.1 7.2 12 17 25.7 17s20.7-9.8 25.7-17c5.1-7.3 7.7-10.2 12.7-10.2s7.5 3 12.7 10.2c5.1 7.2 12 17 25.7 17 13.8 0 20.7-9.8 25.7-17 5.1-7.3 7.7-10.2 12.7-10.2s7.5 3 12.7 10.2c5.1 7.2 12 17 25.7 17 4.4 0 8-3.6 8-8s-3.6-8-8-8c-5 0-7.5-3-12.7-10.2-5.1-7.2-12-17-25.7-17s-20.7 9.8-25.7 17c-5.1 7.3-7.7 10.2-12.7 10.2s-7.5-3-12.7-10.2c-5.1-7.2-12-17-25.7-17s-20.7 9.8-25.7 17c-5.1 7.3-7.7 10.2-12.7 10.2s-7.5-3-12.7-10.2c-5.1-7.2-12-17-25.7-17-4.4 0-8 3.6-8 8 0 4.5 3.6 8 8 8zm682 205.5c5 0 7.5 3 12.7 10.2 5.1 7.2 12 17 25.7 17s20.7-9.8 25.7-17c5.1-7.3 7.7-10.2 12.7-10.2s7.5 3 12.7 10.2c5.1 7.2 12 17 25.7 17 13.8 0 20.7-9.8 25.7-17 5.1-7.3 7.7-10.2 12.7-10.2s7.5 3 12.7 10.2c5.1 7.2 12 17 25.7 17 4.4 0 8-3.6 8-8s-3.6-8-8-8c-5 0-7.5-3-12.7-10.2-5.1-7.2-12-17-25.7-17s-20.7 9.8-25.7 17c-5.1 7.3-7.7 10.2-12.7 10.2s-7.5-3-12.7-10.2c-5.1-7.2-12-17-25.7-17s-20.7 9.8-25.7 17c-5.1 7.3-7.7 10.2-12.7 10.2s-7.5-3-12.7-10.2c-5.1-7.2-12-17-25.7-17-4.4 0-8 3.6-8 8s3.6 8 8 8zm0 50c5 0 7.5 3 12.7 10.2 5.1 7.2 12 17 25.7 17s20.7-9.8 25.7-17c5.1-7.3 7.7-10.2 12.7-10.2s7.5 3 12.7 10.2c5.1 7.2 12 17 25.7 17 13.8 0 20.7-9.8 25.7-17 5.1-7.3 7.7-10.2 12.7-10.2s7.5 3 12.7 10.2c5.1 7.2 12 17 25.7 17 4.4 0 8-3.6 8-8s-3.6-8-8-8c-5 0-7.5-3-12.7-10.2-5.1-7.2-12-17-25.7-17s-20.7 9.8-25.7 17c-5.1 7.3-7.7 10.2-12.7 10.2s-7.5-3-12.7-10.2c-5.1-7.2-12-17-25.7-17s-20.7 9.8-25.7 17c-5.1 7.3-7.7 10.2-12.7 10.2s-7.5-3-12.7-10.2c-5.1-7.2-12-17-25.7-17-4.4 0-8 3.6-8 8s3.6 8 8 8z" fill="#9A2D2F"/><path d="M317.1 104.1a32 32 0 1 0 64 0 32 32 0 1 0-64 0Z" fill="#FFEB4D"/><path d="M349.1 144.1c-22.1 0-40-17.9-40-40s17.9-40 40-40 40 17.9 40 40-18 40-40 40zm0-64c-13.2 0-24 10.8-24 24s10.8 24 24 24 24-10.8 24-24-10.8-24-24-24zM961.2 811.1l-7.2-57.7c-2.5-19.9-12.9-37-27.8-48.4-4.6-38.1-22.1-73.1-49.7-99-28.7-27-65.9-41.9-104.7-41.9h-71.1L640.4 404c-5.8-15.5-20.9-25.9-37.4-25.9H158.6c-17.4 0-32.7 11.1-38.1 27.7L67.7 569.6c-.2.5-.2.9-.3 1.4v209c0 22.1 17.5 40 38.9 40h68.6c-1.7 6.7-2.5 13.8-2.5 21 0 30.4 15.5 57.2 38.9 73h-108c-4.4 0-8 3.6-8 8s3.6 8 8 8h824c4.4 0 8-3.6 8-8s-3.6-8-8-8h-60.9c23.5-15.8 38.9-42.6 38.9-73 0-7.2-.9-14.3-2.5-21h50.5c2.3 0 4.5-1 6-2.7s2.2-3.9 1.9-6.2zm-76.6-170h-32.3c-4.4 0-8-3.6-8-8s3.6-8 8-8h19.1c4.8 5 9.2 10.3 13.2 16zM135.8 410.6c3.2-9.9 12.4-16.6 22.8-16.6h444.5c9.9 0 19 6.2 22.5 15.5L683.7 564H86.3l49.5-153.4zm-12.2 342.8-6.3 50.7h-11c-12.6 0-22.9-10.8-22.9-24v-200H772c30.4 0 59.7 10.2 83.8 29h-3.4c-13.2 0-24 10.8-24 24s10.8 24 24 24h43c6.1 11.9 10.5 24.6 13.2 37.8-8-3.1-16.8-4.8-25.8-4.8H767.2c-29.8 0-56.9 18.9-67.4 46.9l-25 67.1H402.9l-25-67.1c-10.5-28.1-37.6-46.9-67.4-46.9H195c-36.3 0-67 27.2-71.4 63.3zm9.8 50.7 6.1-48.7c3.5-28.1 27.4-49.3 55.5-49.3h115.5c23.2 0 44.2 14.7 52.4 36.5l22.9 61.5h-45.6c-14-30.1-44.5-51-79.8-51s-65.8 20.9-79.8 51h-47.2zm54.9 37c0-39.7 32.3-72 72-72s72 32.3 72 72-32.3 72-72 72-72-32.3-72-72zm121.1 73c23.5-15.8 38.9-42.6 38.9-73 0-7.2-.9-14.3-2.5-21h386c-1.7 6.7-2.5 13.8-2.5 21 0 30.4 15.5 57.2 38.9 73H309.4zm507.9-1c-39.7 0-72-32.3-72-72s32.3-72 72-72 72 32.3 72 72-32.3 72-72 72zm79.8-109c-14-30.1-44.5-51-79.8-51s-65.8 20.9-79.8 51h-45.6l22.9-61.5c8.1-21.8 29.2-36.5 52.4-36.5h115.5c10.3 0 20.7 2 28.5 7.9 4.8 3.6 12.7 8.9 17.6 16.5 4.7 7.4 8.3 15.7 9.5 24.9l6.1 48.7h-47.3z" fill="#9A2D2F"/><path d="M601.4 425.8c9.6.5 19.9.9 30.7 1.2l-6.5-17.4c-3.5-9.3-12.5-15.5-22.5-15.5H158.6c-6.1 0-11.8 2.3-16.1 6.2 3.8 8 11.9 15.5 23.9 21.9 7.4-7.5 17.6-12 28.6-12h169.3c8.3 0 15.6 4.2 19.9 10.6 20-5.8 35.5-11.2 51.1-13.6 13.6-2 27.8-.2 46.2 3h88a39.7 39.7 0 0 1 31.9 15.6zm-328.6 13.3c39.2-2 68.2-7.2 91.4-13H195c-4.2 0-8.3 1.1-11.8 3.1 22.2 7.5 52.5 11.7 89.6 9.9z" fill="#FFF"/></svg><svg viewBox="0 0 1024 1024" class="bicon" id="mouse" xmlns="http://www.w3.org/2000/svg"><path d="m801.5 462.2-23-23c-2.2-2.2-2.2-5.7 0-7.8l10.8-10.8c2.2-2.2 5.7-2.2 7.8 0l23 23c2.2 2.2 2.2 5.7 0 7.8l-10.8 10.8c-2.1 2.1-5.6 2.1-7.8 0z" fill="#68A240"/><path d="M805.5 469.3c-2.9 0-5.7-1.1-7.8-3.2l-23-23c-2.1-2.1-3.2-4.9-3.2-7.8s1.1-5.7 3.2-7.8l10.8-10.8c2.1-2.1 4.9-3.2 7.8-3.2s5.7 1.1 7.8 3.2l23 23c2.1 2.1 3.2 4.9 3.2 7.8s-1.1 5.7-3.2 7.8L813.3 466c-2.1 2.1-4.9 3.3-7.8 3.3zm-12.2-44.8-10.8 10.8 23 23 10.8-10.8-23-23z" fill="#333336"/><path d="M716.5 511c-14.2 0-27.6-5.5-37.6-15.5s-15.5-23.4-15.5-37.6c0-14.2 5.5-27.6 15.5-37.6l73.2-74.1c13.5-13.5 21-31.6 21-50.9 0-19.3-7.4-37.3-21-50.9-13.5-13.5-31.6-21-50.9-21-19.3 0-37.3 7.4-50.9 21l-75 73.2-7.7-7.9 74.9-73.1c15.6-15.6 36.4-24.1 58.6-24.1 22.2 0 43 8.6 58.6 24.2S784 273 784 295.2c0 22.2-8.6 43-24.2 58.6L686.7 428c-8 8-12.3 18.5-12.3 29.8s4.4 21.9 12.3 29.8c7.9 7.9 18.5 12.3 29.8 12.3s21.9-4.4 29.8-12.3l46.2-45.1 7.7 7.9-46.1 45c-10 10.1-23.4 15.6-37.6 15.6z" fill="#333336"/><path d="M581.4 340.2 551 309.8c-4.4-4.4-4.4-11.7 0-16.1l10.2-10.2c4.4-4.4 11.7-4.4 16.1 0l30.4 30.4c4.4 4.4 4.4 11.7 0 16.1l-10.2 10.2c-4.4 4.4-11.7 4.4-16.1 0z" fill="#68A240"/><path d="M589.4 349c-4.3 0-8.6-1.6-11.9-4.9l-30.4-30.4c-6.6-6.6-6.6-17.3 0-23.9l10.2-10.2c3.2-3.2 7.4-4.9 11.9-4.9s8.8 1.8 11.9 4.9l30.4 30.4c3.2 3.2 4.9 7.4 4.9 11.9s-1.8 8.8-4.9 11.9L601.3 344c-3.2 3.4-7.5 5-11.9 5zm-4.1-12.7c2.3 2.3 6 2.3 8.3 0l10.2-10.2c1.1-1.1 1.7-2.6 1.7-4.2s-.6-3.1-1.7-4.2l-30.4-30.4c-1.1-1.1-2.6-1.7-4.2-1.7s-3.1.6-4.2 1.7l-10.2 10.2c-2.3 2.3-2.3 6 0 8.3l30.5 30.5z" fill="#333336"/><path d="M505 715.9c-115.2 115.2-267.9 116.7-361.1 23.5s-91.7-246 23.5-361.1 282-181.8 400.7-63.1c110.5 110.5 52 285.6-63.1 400.7z" fill="#FFD632"/><path d="M304.6 811.6c-62.2 0-120.3-24-164.6-68.3-47.1-47.1-71.3-109.8-68-176.5 1.6-33.5 10.1-66.8 25-98.9 15.6-33.5 38-65 66.5-93.5 62.4-62.4 134-105.3 201.7-120.7 79.4-18.2 151 1.8 206.8 57.7 52.7 52.7 71.6 123.1 54.6 203.6-7.6 35.8-22 72.2-42.8 108.1-20.2 34.7-45.4 67.3-74.8 96.8-28.5 28.5-59.9 50.9-93.5 66.5-32.2 15-65.5 23.4-98.9 25-4.1.1-8.1.2-12 .2zm116.5-553.5c-17.3 0-35.2 2.1-53.5 6.3-65.7 15-135.4 56.8-196.4 117.8-27.6 27.6-49.2 58-64.3 90.3-14.4 30.9-22.5 62.8-24 94.8-3.1 63.6 19.9 123.3 64.8 168.2 44.9 44.9 104.6 67.9 168.2 64.8 32-1.6 64-9.6 94.8-24 32.4-15.1 62.8-36.7 90.3-64.3l3.9 3.9-3.9-3.9c58.5-58.5 100.3-131.1 114.7-199.4 11.3-53.5 11.5-130.5-51.6-193.6-27.7-27.7-59.3-46.2-94-55-15.7-3.9-32.1-5.9-49-5.9z" fill="#333336"/><path d="M457.5 702.9c-104.8 104.8-237.1 113-313.6 36.5s-68.3-208.8 36.5-313.6 252.2-170 349.7-72.6c90.6 90.7 32.2 244.8-72.6 349.7z" fill="#D5D9CF"/><path d="M269.5 795.7c-50 0-95.3-18.2-129.5-52.4-38.9-38.9-57.2-92.4-51.3-150.6 6-59.4 37.2-120.1 87.8-170.8 56.8-56.8 120.7-97.1 180-113.6 69.9-19.4 131.3-5.2 177.4 41 43.6 43.6 56.9 104 38.5 174.8-16 61.5-56.5 128.1-111 182.7-50.7 50.7-111.3 81.9-170.8 87.8-7.1.7-14.1 1.1-21.1 1.1zm145.8-484.9c-17.8 0-36.5 2.7-55.9 8.1-57.5 15.9-119.7 55.3-175.2 110.7-48.9 48.9-79 107.2-84.7 164.1-5.5 54.9 11.6 105.2 48.2 141.8 36.6 36.6 86.9 53.7 141.8 48.2 56.9-5.7 115.2-35.8 164.1-84.7 53.2-53.2 92.7-118 108.2-177.6 21.9-84.4-7.3-135.9-35.6-164.3-22.6-22.6-48.9-37-78.2-43-10.6-2.2-21.4-3.3-32.7-3.3z" fill="#333336"/><path d="M345.4 560c45.6 45.6 97 79.6 148.6 100.9 80.1-101 120.1-234.1 40.7-313.4-82-82-204.5-43.7-302.1 31.3 19.5 62.4 57.6 126.1 112.8 181.2z" fill="#68A240"/><path d="m495.7 667.6-3.8-1.6C438 643.7 386 608.4 341.5 563.9c-54.1-54.1-93.6-117.6-114.1-183.4l-1.1-3.7 3-2.3c53.5-41.1 108.6-67.3 159.4-75.6 28.4-4.7 55.1-3.6 79.5 3.1 26.4 7.3 50.1 21.3 70.5 41.7 38.1 38.1 52.2 91.1 41 153.5-9.8 54.1-38.6 113.5-81.3 167.3l-2.7 3.1zM239.1 380.9c20.3 62.8 58.3 123.4 110.2 175.2 42.4 42.4 91.8 76.3 143 98.1 40.1-51.4 67.2-107.8 76.5-159.1 10.6-58.6-2.5-108.3-37.9-143.7-36.9-36.9-84.1-50.9-140.4-41.7-48 7.9-100.3 32.5-151.4 71.2z" fill="#333336"/><path d="M530 353.2 334.3 548.9" fill="#F35B52"/><path d="m330.457 545.045 195.725-195.726 7.778 7.778-195.725 195.726z" fill="#333336"/><path d="M414.3 487.4 395.9 469c-8-8-8-21.2 0-29.2l58.8-58.8c8-8 21.2-8 29.2 0l18.4 18.4c8 8 8 21.2 0 29.2l-58.8 58.8c-8 8-21.1 8-29.2 0z" fill="#D8A128"/><path d="M428.9 498.9c-6.7 0-13.4-2.5-18.5-7.6L392 472.8c-4.9-4.9-7.6-11.5-7.6-18.5s2.7-13.6 7.6-18.5l58.8-58.8c10.2-10.2 26.8-10.2 37 0l18.4 18.4c10.2 10.2 10.2 26.8 0 37l-58.8 58.8c-5.1 5.1-11.8 7.7-18.5 7.7zm40.4-118.5c-3.9 0-7.8 1.5-10.7 4.4l-58.8 58.8c-2.8 2.8-4.4 6.6-4.4 10.7s1.6 7.9 4.4 10.7l18.4 18.4c5.9 5.9 15.5 5.9 21.4 0l58.8-58.8c5.9-5.9 5.9-15.5 0-21.4L480 384.8c-3-2.9-6.9-4.4-10.7-4.4z" fill="#333336"/><path d="M470.3 413 428 455.2" fill="#FFC86B"/><path d="M428 460.7c-1.4 0-2.8-.5-3.9-1.6-2.1-2.1-2.1-5.6 0-7.8l42.3-42.3c2.1-2.1 5.6-2.1 7.8 0 2.1 2.1 2.1 5.6 0 7.8l-42.3 42.3c-1 1.1-2.5 1.6-3.9 1.6z" fill="#333336"/><path d="M314.552 568.742a26.4 26.4 0 1 0 37.334-37.336 26.4 26.4 0 1 0-37.334 37.336Z" fill="#D8A128"/><path d="M333.2 581.9c-8.5 0-16.5-3.3-22.5-9.3s-9.3-14-9.3-22.5 3.3-16.5 9.3-22.5 14-9.3 22.5-9.3 16.5 3.3 22.5 9.3c12.4 12.4 12.4 32.6 0 45.1-6 5.9-14 9.2-22.5 9.2zm0-52.7c-5.6 0-10.8 2.2-14.7 6.1s-6.1 9.2-6.1 14.7c0 5.6 2.2 10.8 6.1 14.7s9.2 6.1 14.7 6.1 10.8-2.2 14.7-6.1c8.1-8.1 8.1-21.4 0-29.5-3.9-3.8-9.1-6-14.7-6z" fill="#333336"/><path d="m905.706 374.489-38.608-38.608 38.89-38.89 38.608 38.607z" fill="#D5D9CF"/><path d="m905.7 382.3-46.4-46.4 46.7-46.7 46.4 46.4-46.7 46.7zm-30.9-46.4 30.9 30.9 31.1-31.1-30.9-30.9-31.1 31.1z" fill="#333336"/><path d="m873 322.9 45.6 45.6c4.7 4.7 4.7 12.3 0 16.9l-38.9 38.9c-4.6 4.6-10.1 8.2-16.1 10.6l-15.3 6.1-12.5 10.7c-2.3 2-5.7 1.8-7.8-.3l-37.9-37.9c-2.2-2.2-2.3-5.6-.2-7.9l10.3-11.6 7.3-17.4c2.4-5.8 5.9-11 10.4-15.5l38.2-38.2c4.6-4.6 12.2-4.6 16.9 0z" fill="#68A240"/><path d="M832.2 458.7c-2.9 0-5.8-1.1-8-3.3l-37.9-37.9c-4.2-4.2-4.4-11-.5-15.5l9.7-11 6.9-16.5c2.7-6.5 6.6-12.3 11.6-17.2l38.2-38.2c6.8-6.8 17.9-6.8 24.7 0l45.6 45.6c3.3 3.3 5.1 7.7 5.1 12.4s-1.8 9.1-5.1 12.4l-38.9 38.9c-5.2 5.2-11.2 9.1-18 11.9l-14.4 5.8-11.7 9.9c-2.1 1.8-4.7 2.7-7.3 2.7zm32.3-133.8c-1.7 0-3.3.6-4.6 1.9L821.8 365c-3.9 3.9-7 8.6-9.2 13.7l-7.6 18.2-11 12.4c-.1.1-.1.3 0 .4l37.9 37.9c.1.1.3.1.4 0l13.1-11.3 16.1-6.5c5.4-2.2 10.2-5.3 14.3-9.4l38.9-38.9c1.2-1.2 1.9-2.9 1.9-4.6 0-1.7-.7-3.4-1.9-4.6l-45.6-45.6c-1.2-1.1-2.9-1.8-4.6-1.8z" fill="#333336"/></svg></svg>